<svg xmlns="http://www.w3.org/2000/svg" version="1.1" xmlns:xlink="http://www.w3.org/1999/xlink" xmlns:svgjs="http://svgjs.com/svgjs" width="512" height="512" x="0" y="0" viewBox="0 0 512 512" style="enable-background:new 0 0 512 512" xml:space="preserve" class=""><g><path d="M370.9 476.3v-55.1h32.6c19.7 0 35.8-16.1 35.8-35.8V249.2c0-19.7-16.1-35.8-35.8-35.8h-32.7v-66.5c0-13.6-11.1-24.8-24.8-24.8H165.8c-13.6 0-24.8 11.1-24.8 24.8v66.5h-32.6c-19.7 0-35.8 16.1-35.8 35.8v136.2c0 19.7 16.1 35.8 35.8 35.8H141v55.1c0 13.6 11.1 24.8 24.8 24.8h180.3c13.7-.1 24.8-11.2 24.8-24.8zM165.8 146.6l180.5.3v66.5H165.6l.2-66.8zm-57.3 250.1c-6.2 0-11.3-5.1-11.3-11.3V249.2c0-6.2 5.1-11.3 11.3-11.3h295c6.2 0 11.3 5.1 11.3 11.3v136.2c0 6.2-5.1 11.3-11.3 11.3h-32.6v-79.4c0-6.8-5.5-12.3-12.3-12.3H153.4c-6.8 0-12.3 5.5-12.3 12.3v79.4h-32.6zm57.1 79.6V329.6h180.8v146.7c0 .1-.1.3-.3.3l-180.5-.3z" fill="#000000" data-original="#000000" class=""></path><path d="M139.1 262.6c-4.5-4.6-12.8-4.6-17.3 0-2.3 2.3-3.6 5.4-3.6 8.7s1.3 6.4 3.6 8.7c2.3 2.3 5.4 3.6 8.7 3.6 3.3 0 6.4-1.3 8.7-3.6 2.3-2.3 3.6-5.5 3.6-8.7-.1-3.3-1.4-6.4-3.7-8.7zM308.9 390.8H203.1c-6.8 0-12.3 5.5-12.3 12.3s5.5 12.3 12.3 12.3h105.8c6.8 0 12.3-5.5 12.3-12.3s-5.6-12.3-12.3-12.3zM308.9 433.1H203.1c-6.8 0-12.3 5.5-12.3 12.3s5.5 12.3 12.3 12.3h105.8c6.8 0 12.3-5.5 12.3-12.3s-5.6-12.3-12.3-12.3zM308.9 348.5H203.1c-6.8 0-12.3 5.5-12.3 12.3s5.5 12.3 12.3 12.3h105.8c6.8 0 12.3-5.5 12.3-12.3s-5.6-12.3-12.3-12.3zM256 62c-21 0-41.1 6.4-58.1 18.4-5.5 3.9-6.8 11.6-2.9 17.1 3.9 5.5 11.6 6.8 17.1 2.9 12.8-9.1 28-13.9 43.9-13.9 15.9 0 31.1 4.8 43.9 13.9 2.2 1.5 4.6 2.3 7.1 2.3 3.8 0 7.6-1.8 10-5.2 3.9-5.5 2.6-13.2-2.9-17.1C297.1 68.4 277 62 256 62z" fill="#000000" data-original="#000000" class=""></path><path d="M343.1 63.1c3.8 0 7.6-1.8 10-5.2 3.9-5.5 2.6-13.2-2.9-17.1C322.7 21.3 290.1 11 256 11s-66.7 10.3-94.2 29.9c-5.5 3.9-6.8 11.6-2.9 17.1 3.9 5.5 11.6 6.8 17.1 2.9 23.4-16.6 51.1-25.4 80-25.4 29 0 56.6 8.8 80 25.4 2.2 1.5 4.7 2.2 7.1 2.2z" fill="#000000" data-original="#000000" class=""></path></g></svg>